<?xml version="1.0" encoding="UTF-8" standalone="no"?>
<!DOCTYPE svg PUBLIC "-//W3C//DTD SVG 1.1//EN" "http://www.w3.org/Graphics/SVG/1.1/DTD/svg11.dtd">
<svg width="100%" height="100%" viewBox="0 0 3508 2481" version="1.1" xmlns="http://www.w3.org/2000/svg" xmlns:xlink="http://www.w3.org/1999/xlink" xml:space="preserve" xmlns:serif="http://www.serif.com/" style="fill-rule:evenodd;clip-rule:evenodd;stroke-linejoin:round;stroke-miterlimit:2;">
    <g id="Layer1">
        <path d="M1673.66,1042.66C1673.59,1042.58 1673.52,1042.49 1673.45,1042.38C1671.72,1039.24 1670.52,1033.67 1670.35,1032.89C1668.21,1022.92 1667.79,1010.03 1668.76,1002.96C1672.35,976.832 1672.27,975.69 1679.81,965.986C1679.87,965.903 1679.9,965.766 1680,965.737C1680.57,965.575 1680.63,965.725 1681.13,965.605C1680.81,964.876 1680.47,964.218 1680.11,963.649C1680.06,963.558 1679.4,963.355 1680.23,955.477C1681.49,943.606 1686.6,912.886 1696.73,908.069C1703.6,904.802 1706.46,904.437 1709.04,902.605C1709.06,902.498 1709.09,902.39 1709.12,902.281C1710.36,898.027 1717.06,895.635 1720.46,894.456C1720.47,894.321 1720.47,894.161 1720.4,893.963C1720.82,893.927 1721.18,893.63 1721.6,893.594C1721.6,893.594 1721.61,893.596 1721.62,893.602C1722.57,892.582 1725.59,890.078 1735.35,883.827C1740.91,880.262 1755.06,871.487 1760.23,869.346C1763.51,867.988 1769.91,864.853 1775.59,860.908C1779,858.535 1781.32,856.445 1782.9,854.754C1783.02,854.297 1783.17,853.669 1783.36,852.802C1784.16,849.142 1784.93,844.162 1785.15,840.394C1784.8,838.994 1784.64,837.5 1784.62,837.231C1784.29,834.126 1784.27,830.307 1784.32,827.556C1783.07,828.934 1781.06,830.574 1777.64,827.165C1776.56,826.092 1774.4,819.387 1771.12,814.358C1766.48,807.228 1770.24,792.74 1776.14,794.757C1777.43,795.197 1778.45,796.424 1779.23,797.701C1778.91,787.38 1777.79,762.13 1793.9,754.061C1817.88,742.05 1825.26,749.341 1828.18,749.756C1829.56,749.952 1837.81,749.538 1842.42,753.177C1846.81,756.637 1847.35,762.423 1851.12,773.848C1852.57,778.23 1854.42,789.465 1854.25,796.49C1856.37,794.68 1859.48,793.767 1860.6,796.505C1861,797.47 1860.87,797.508 1861.5,806.595C1861.73,809.894 1862.05,812.849 1861.62,814.046C1861.51,814.334 1856,825.69 1853.72,828.519C1852.28,830.317 1851.5,829.914 1849.38,829.722C1848.91,829.679 1848.48,829.635 1848.09,829.557C1847.9,832.015 1847.24,835.095 1845.55,839.024C1845.43,839.277 1845.32,839.528 1845.21,839.777C1845.3,839.678 1845.38,839.598 1845.43,839.569C1846.15,839.135 1847.12,839.648 1847.11,840.549C1847.09,841.362 1847.08,841.361 1846.83,850.711C1846.48,864.074 1845.58,867.11 1837.57,883.126C1834.77,888.739 1828.32,902.145 1825.3,911.866C1823.47,917.752 1824.01,918.613 1823.48,919.152C1822.95,919.696 1821.99,919.438 1821.83,918.661C1819.4,906.943 1819.59,904.161 1819.67,902.89C1819.68,902.737 1820.32,895.793 1822.21,888.737C1824.68,879.553 1827.22,876.539 1829.33,872.459C1834.16,863.124 1834.92,856.085 1836.16,851.97C1836.06,852.078 1836,852.137 1836,852.138C1835.86,852.179 1835.72,852.188 1835.57,852.183C1833.15,854.423 1830.49,856.572 1827.72,858.689C1819.49,864.975 1808.14,859.793 1805.23,858.211C1803.21,857.112 1798.92,853.679 1794.95,850.342C1796.28,853.689 1796.74,856.934 1797.72,859.892C1805.67,883.835 1807.41,887.969 1808.4,890.351C1812.84,900.941 1810.28,902.382 1808.82,916.423C1816.65,924.153 1819.21,938.479 1817.9,947.353C1815.05,966.596 1810.26,970.407 1807.76,975.306C1802.47,985.661 1801.04,987.963 1791.78,990.452C1782.81,992.863 1778.76,993.381 1777.61,993.528C1754.25,996.516 1744.14,983.997 1736.28,973.871C1736.26,975.307 1736.04,978.028 1735.09,983.794C1734.71,986.149 1732.64,985.504 1727.93,1005.76C1725.45,1016.47 1724.86,1021.05 1720.7,1031.64C1718.54,1037.15 1717.96,1038.45 1715.33,1045.73C1714.65,1047.62 1711.91,1055.2 1703.16,1067.71C1699.78,1072.55 1698.79,1071.74 1696.92,1074.75C1695.98,1076.27 1696.11,1076.35 1695.99,1076.45C1695.97,1076.46 1695.95,1076.48 1695.94,1076.49C1695.94,1076.5 1695.94,1076.51 1695.94,1076.52C1695.95,1077.55 1694.64,1078.14 1693.88,1077.27C1690.36,1073.19 1677.23,1054.06 1674.64,1047.24C1674,1045.56 1673.73,1044.1 1673.66,1042.66ZM1681.24,965.849C1681.28,966.172 1681.48,966.503 1681.41,966.819C1681.31,967.207 1677.32,971.424 1675.47,976.563C1674.03,980.569 1673.49,984.938 1671.06,1003.26C1670.12,1010.34 1670.52,1026.18 1673.86,1036.82C1674.24,1032.9 1675.03,1025.03 1677.83,1002.48C1679.3,990.643 1683.4,982.55 1685.44,978.086C1683.82,973.77 1682.65,969.141 1681.24,965.849ZM1686.75,981.237C1684.62,985.863 1681.53,993.112 1680.34,1002.45C1677.35,1025.91 1676.32,1036.61 1676.03,1039.58C1675.93,1040.6 1675.86,1041.27 1675.77,1041.74C1675.79,1042.56 1675.85,1043.35 1675.99,1044.03C1676.52,1046.72 1678.18,1049.71 1680.96,1054.15C1685.68,1061.67 1689.03,1066.67 1691.34,1069.97C1683.23,1045 1684.37,1037.79 1685.43,1020.5C1686.09,1009.78 1685.88,999.676 1687.6,990.851C1688.48,986.356 1689.31,985.567 1689.05,984.846C1689.04,984.805 1689.04,984.784 1689.09,984.684C1688.05,983.692 1687.27,982.309 1686.75,981.237ZM1709.03,904.733C1706.5,906.191 1703.43,906.884 1697.52,909.709C1686.87,914.801 1681.24,956.5 1681.87,962.679C1683.63,965.557 1685.09,970.745 1686.63,975.275C1687.27,974.857 1687.35,974.908 1688.05,974.437C1688.32,974.972 1688.7,975.443 1688.96,975.978C1688.97,975.984 1688.79,976.679 1688.36,977.706C1688.23,978.018 1688.07,978.361 1687.9,978.735C1688.87,981.097 1689.91,982.94 1691.1,983.637C1692.27,984.322 1693.06,983.324 1695.65,981.505C1700.78,977.893 1701.65,978.194 1708.76,973.956C1711.16,972.522 1722.49,960.253 1723.54,957.357C1723.6,957.2 1724.32,955.196 1724.65,954.291C1725.03,950.799 1726.45,946.246 1729.72,940.346C1734.63,931.488 1741.97,922.95 1746.42,919.807C1745.91,916.168 1744.43,909.667 1732.61,908.016C1722.47,906.6 1711.79,909.333 1709.73,906.491C1709.72,906.482 1709.25,905.791 1709.03,904.733ZM1722,895.789C1720.37,896.392 1717.29,897.412 1714.77,898.87C1714.77,898.911 1714.77,898.952 1714.77,898.994C1714.77,899.109 1713.51,900.672 1713.39,900.814C1712.47,901.962 1711.63,902.821 1710.81,903.506C1710.79,904.003 1710.88,904.648 1711.25,905.368C1711.32,905.501 1712,905.823 1713.72,905.887C1722.16,906.204 1744.93,901.771 1748.34,918.05C1752.08,914.407 1758.38,910.136 1768.95,911.108C1769.1,911.121 1769.27,911.055 1769.38,911.147C1769.61,911.34 1769.77,911.595 1769.95,911.838C1776.31,911.128 1785.28,910.588 1796.79,911.084C1799.4,911.196 1801.75,911.823 1803.84,912.848C1802.87,910.573 1802.01,908.388 1801.3,906.501C1796.14,909.743 1787.47,908.603 1785.69,908.735C1782.43,908.977 1782.34,910.304 1771.62,908.07C1766.3,906.962 1764.84,906.473 1762.28,906.201C1755,905.429 1751.89,901.512 1750.3,900.44C1741.05,902.074 1731.2,900.36 1722,895.789ZM1783.07,857.328C1776.88,863.287 1767.28,868.435 1760.59,871.215C1755.06,873.51 1728.18,889.853 1723.29,894.462C1727.13,896.313 1737.09,900.345 1748.6,898.689C1748.6,898.683 1748.6,898.677 1748.6,898.67C1748.62,898.63 1748.81,898.566 1748.85,898.55C1749.31,898.364 1749.73,898.339 1750.14,898.435C1752.92,897.915 1755.78,897.049 1758.65,895.731C1760.89,894.707 1768.96,890.906 1775.68,880.52C1777.88,877.118 1780.45,871.516 1787.37,863.548C1786.39,861.133 1785.6,858.616 1785.12,855.172C1784.97,855.346 1784.82,855.519 1784.66,855.692C1784.48,856.408 1784.34,856.833 1784.28,856.861C1783.88,857.034 1783.47,857.163 1783.07,857.328ZM1786.76,843.266C1786.55,845.463 1786.21,847.759 1785.86,849.827C1785.97,849.944 1786.08,850.057 1786.19,850.176C1786.2,850.16 1786.21,850.15 1786.22,850.147C1786.64,849.956 1787.11,849.904 1787.53,849.713C1787.62,850.166 1787.87,850.575 1787.96,851.028C1787.98,851.136 1787.23,852.339 1787.16,852.45C1787.01,852.678 1786.86,852.907 1786.7,853.135C1786.93,855.193 1787.44,858.324 1788.8,861.938C1788.95,861.766 1789.11,861.594 1789.27,861.421L1789.31,861.468C1789.32,861.431 1789.32,861.394 1789.33,861.357C1789.35,861.174 1790.49,860.72 1790.95,861.61C1791.15,861.987 1791.08,862.471 1790.8,862.782C1790.4,863.212 1790.02,863.636 1789.65,864.054C1791.89,869.352 1793.68,871.986 1796.09,882.623C1797.08,887.012 1799.07,894.718 1802.36,903.686C1802.59,903.729 1802.75,903.776 1803.19,903.805C1803.09,904.255 1803.1,904.724 1803,905.175C1803,905.184 1802.98,905.207 1802.94,905.239C1804.1,908.298 1805.4,911.486 1806.87,914.726C1806.91,914.755 1806.94,914.784 1806.98,914.813C1808.02,905.653 1808.86,904.29 1808.86,900.462C1808.86,895.861 1806.97,892.636 1804.87,886.97C1802.4,880.321 1795.83,861.164 1795.11,858.479C1793.98,854.257 1793.37,850.339 1790.3,846.366C1788.91,845.164 1787.54,843.952 1786.76,843.266ZM1786.18,825.373C1786.12,827.261 1786.06,830.916 1786.27,834.342C1786.89,835.325 1787.07,837.344 1787,839.788C1787.05,839.979 1787.1,840.161 1787.16,840.334C1787.43,840.541 1788.21,841.149 1788.98,841.85C1790.25,842.992 1791.29,844.141 1792.14,845.289C1798.25,850.471 1804.38,855.412 1806.4,856.425C1820.1,863.279 1826.47,856.954 1827.14,856.428C1832.94,851.837 1840.67,845.979 1844.2,836.698C1845.13,834.255 1845.99,831.615 1846.05,828.077C1845.84,827.658 1845.67,827.123 1845.55,826.438C1845.54,826.338 1845.46,826.228 1845.51,826.136C1845.68,825.759 1845.81,825.623 1845.94,825.457C1845.9,824.92 1845.83,824.365 1845.75,823.789C1845.67,823.248 1845.64,823.248 1845.66,823.204C1845.96,822.517 1846.23,822.691 1846.53,822.003C1846.86,822.369 1847.39,822.508 1847.73,822.874C1847.73,822.875 1847.92,824.04 1848.03,825.259C1848.1,825.948 1848.15,826.713 1848.16,827.569C1848.18,827.577 1848.2,827.584 1848.22,827.59C1848.75,827.756 1848.77,827.674 1851.27,827.951C1851.6,827.988 1851.99,827.821 1853.45,825.416C1855.22,822.491 1859.69,813.68 1859.79,813.235C1860.01,812.297 1859.8,812 1859.08,798.307C1859.02,797.175 1858.75,795.979 1856.76,796.977C1855.38,797.669 1854.23,798.97 1853.96,799.716C1853.9,800.054 1853.83,800.365 1853.75,800.648L1853.63,801.192C1853.61,801.186 1853.59,801.181 1853.57,801.176C1853.54,801.253 1853.51,801.327 1853.48,801.397C1853.46,801.435 1853.46,801.495 1853.42,801.511C1852.8,801.767 1852.77,801.687 1852.15,801.942C1852.02,801.517 1851.85,801.106 1851.72,800.681C1851.7,800.619 1852.95,799.324 1851.75,788.348C1851.09,782.304 1849.98,776.885 1849.28,774.732C1845.4,762.691 1844.98,758.487 1842.01,755.442C1837.91,751.242 1829.18,752.027 1827.51,751.587C1824.1,750.694 1817.14,744.556 1794.73,755.722C1776.43,764.843 1781.93,798.779 1780.91,802.179C1780.88,802.257 1780.85,802.334 1780.82,802.406C1780.8,802.433 1780.8,802.477 1780.77,802.486C1780.17,802.676 1780.16,802.613 1779.56,802.803L1779.55,802.239C1779.36,802.138 1779.16,801.958 1779,801.657C1778.21,800.172 1776.3,795.171 1774.04,797.016C1771.26,799.288 1769.77,808.443 1772.73,813.068C1776.4,818.813 1777.79,823.806 1778.97,825.758C1778.99,825.784 1779.01,825.805 1779.02,825.834C1779.02,825.838 1779.02,825.844 1779.02,825.849C1779.3,826.121 1779.88,826.656 1780.33,826.934C1782.26,828.138 1782.78,826.186 1784.4,824.892C1784.41,824.482 1784.43,824.186 1784.43,824.034C1784.44,823.894 1784.37,823.727 1784.45,823.614C1784.83,823.105 1785,823.273 1785.38,822.765C1785.57,823.246 1786.02,823.596 1786.21,824.076C1786.21,824.088 1786.21,824.325 1786.19,824.738C1786.25,824.753 1786.31,824.769 1786.37,824.786C1786.3,824.979 1786.24,825.176 1786.18,825.373ZM1734.54,971.63C1732.48,969.004 1730.52,966.655 1728.45,964.941C1728.01,964.572 1725.69,963.065 1724.84,959.248C1724.2,960.341 1722.8,962.281 1719.43,966.149C1714.64,971.63 1711.15,974.96 1709.92,975.698C1702.17,980.369 1701.69,979.592 1694.43,984.992C1693.06,986.007 1691.85,986.142 1690.8,985.783C1690.34,987.707 1688.26,991.282 1687.77,1009.97C1687.33,1027.06 1686.42,1030.1 1686.78,1038.49C1687.17,1047.72 1689.37,1057.51 1694.79,1073.08C1696.89,1069.91 1697.92,1070.61 1701.06,1066.23C1711.02,1052.34 1713.58,1043.83 1713.77,1043.34C1719.88,1027.01 1721,1027.34 1725.01,1009.7C1729.71,989.04 1731.79,986.593 1733.06,984.129C1733.25,983.778 1733.28,983.732 1733.74,980.728C1734.94,972.942 1734.29,972.885 1734.49,971.747C1734.5,971.695 1734.52,971.659 1734.54,971.63ZM1726.39,955.33C1726.19,958.585 1727,961.341 1729.24,963.179C1736.54,969.182 1740.68,978.907 1750.49,985.878C1764.56,995.876 1780.99,991.188 1790.3,988.748C1799.25,986.402 1800.51,985.086 1805.77,974.603C1808.48,969.211 1813.02,965.865 1815.74,947.038C1816.84,939.423 1814.83,926.711 1808.4,919.262C1807.97,919.817 1807.82,918.799 1806.82,918.091C1806.04,917.535 1806.04,917.347 1805.45,916.488C1803.5,915.016 1801.24,913.978 1798.67,913.545C1796.5,913.182 1786.43,912.85 1776.89,913.441C1766.48,914.087 1760.44,915.506 1760.42,915.479C1760.15,914.981 1760.26,914.346 1760.15,913.79C1756.52,914.695 1752.33,916.685 1748.61,920.888C1748.58,920.916 1748.15,921.576 1747.44,921.472C1747.38,921.464 1747.31,921.446 1747.23,921.416C1746.07,922.273 1744.09,923.96 1741.31,927.098C1734.94,934.301 1728.19,944.856 1726.67,953.097C1726.7,953.573 1726.72,954.049 1726.67,954.521C1726.66,954.562 1726.55,954.89 1726.39,955.33ZM1752.57,899.969C1754.49,901.547 1757.19,903.805 1762.47,904.329C1764.51,904.531 1767.25,905.14 1770.12,905.762C1771.5,905.46 1771.88,904.924 1773.87,904.585C1777.01,904.051 1777.75,903.661 1781.2,900.677C1791.1,892.099 1790.96,891.894 1791.58,890.55C1792.61,888.338 1793.95,885.688 1794.49,884.597C1794.5,884.552 1794.51,884.507 1794.52,884.462C1794.52,884.452 1794.52,884.444 1794.52,884.436C1793.37,879.57 1792.58,875.873 1790.4,870.569C1789.65,868.741 1788.93,867.17 1788.26,865.652C1781.94,873.106 1779.49,878.431 1777.4,881.644C1770.8,891.771 1762.06,897.697 1752.57,899.969ZM1773.62,906.491C1776.93,907.141 1780.12,907.599 1782.34,907.273C1784.65,906.934 1784.9,906.654 1787.42,906.771C1789.89,906.885 1796.73,907.284 1800.59,904.603C1799.85,902.595 1799.36,901.139 1799.18,900.61C1797.28,895.03 1796.12,890.87 1795.25,887.406C1794.72,888.469 1794.04,889.853 1793.26,891.55C1792.65,892.893 1792.57,893.524 1781.58,902.856C1777.45,906.37 1775.74,905.991 1773.62,906.491ZM1839.45,848.669C1839.46,848.672 1839.47,848.675 1839.49,848.677C1839.38,849.079 1839.33,849.497 1839.22,849.898C1839.2,849.996 1838.51,849.988 1837.72,852.991C1836.31,858.323 1835.34,866.168 1828.83,877.115C1826.56,880.937 1823.43,887.955 1821.72,901.483C1821.37,904.217 1821.46,906.36 1822.79,913.441C1824.09,908.715 1827.14,899.931 1834.34,884.999C1839.74,873.808 1843.38,867.686 1844.25,858.417C1844.62,854.478 1844.73,846.48 1844.79,843.548C1843.08,845.425 1842.48,845.879 1839.79,848.354C1839.67,848.46 1839.56,848.565 1839.45,848.669ZM1828.68,794.084C1828.75,793.767 1828.78,793.444 1828.89,793.142C1828.89,793.141 1829.74,792.603 1830.77,792.125C1840.59,787.575 1844.65,797.806 1839.53,805.18C1832.76,814.938 1820.55,799.691 1826.3,794.943C1826.43,794.833 1827.11,794.277 1828.23,794.01C1828.3,793.992 1828.38,793.926 1828.45,793.959C1828.54,794.004 1828.62,794.045 1828.68,794.084ZM1829.38,794.8C1829.16,795.099 1828.98,795.425 1828.75,795.711C1828.74,795.726 1825.74,796.1 1826.97,800.027C1828.41,804.63 1835.32,810.721 1839.03,802.146C1841.47,796.49 1838.36,789.85 1830.43,794.657C1830.04,794.893 1830.05,794.924 1830,794.922C1829.7,794.911 1829.53,794.859 1829.38,794.8ZM1801.84,794.722C1809.06,789.653 1813.64,792.821 1814.53,800.293C1816.11,813.651 1798.73,813.778 1794.95,805.431C1793.42,802.063 1791.39,796.243 1797.18,794.892C1798.6,794.562 1800.41,794.606 1801.84,794.722ZM1799.73,796.483C1797.78,796.545 1795.77,797.011 1795.39,798.662C1794.98,800.459 1796.2,803.302 1796.79,804.587C1799.86,811.31 1815.57,811.465 1812.06,798.442C1811.42,796.061 1809.9,792.515 1804.56,795.541C1804.59,795.667 1804.65,795.81 1804.77,795.968C1804.4,796.158 1804.15,796.54 1803.78,796.731C1803.74,796.751 1803.39,796.703 1802.86,796.644C1801.89,797.354 1801.21,797.98 1801.21,797.98C1800.67,798.062 1800.12,797.908 1799.58,797.99C1799.72,797.504 1799.63,796.975 1799.73,796.483Z"/>
    </g>
</svg>
