<?xml version="1.0" encoding="UTF-8" standalone="no"?>
<!DOCTYPE svg PUBLIC "-//W3C//DTD SVG 1.1//EN" "http://www.w3.org/Graphics/SVG/1.1/DTD/svg11.dtd">
<svg width="100%" height="100%" viewBox="0 0 3508 2481" version="1.1" xmlns="http://www.w3.org/2000/svg" xmlns:xlink="http://www.w3.org/1999/xlink" xml:space="preserve" xmlns:serif="http://www.serif.com/" style="fill-rule:evenodd;clip-rule:evenodd;stroke-linejoin:round;stroke-miterlimit:2;">
    <g id="Layer1">
        <path d="M1567.36,914.181C1572.03,912.312 1571.94,859.317 1588.72,861.181C1595.14,861.894 1593.85,854.074 1596.63,851.293" style="fill:none;stroke:black;stroke-width:0.01px;stroke-linecap:round;stroke-miterlimit:1.5;"/>
        <path d="M1787.61,841.394C1794.91,847.74 1803.87,855.157 1806.4,856.425C1820.1,863.279 1826.47,856.954 1827.14,856.428C1832.94,851.837 1840.67,845.979 1844.2,836.698C1845.48,833.36 1846.61,829.652 1845.75,823.789C1845.67,823.248 1845.64,823.248 1845.66,823.204C1845.96,822.517 1846.23,822.691 1846.53,822.003C1846.86,822.369 1847.39,822.508 1847.73,822.874C1847.73,822.875 1847.92,824.04 1848.03,825.259C1848.3,828.148 1848.42,832.366 1845.55,839.024C1842.23,846.688 1835.42,852.808 1827.72,858.689C1819.49,864.975 1808.14,859.793 1805.23,858.211C1802.49,856.72 1795.57,850.928 1790.93,846.914C1788.69,844.978 1786.22,842.794 1786.13,842.699C1785.08,841.578 1784.66,837.683 1784.62,837.231C1784.07,832.103 1784.39,825.026 1784.43,824.034C1784.44,823.894 1784.37,823.727 1784.45,823.614C1784.83,823.105 1785,823.273 1785.38,822.765C1785.57,823.246 1786.02,823.596 1786.21,824.076C1786.25,824.165 1785.55,837.832 1787.61,841.394Z"/>
        <path d="M1779.02,825.849C1779.3,826.121 1779.88,826.656 1780.33,826.934C1782.4,828.231 1782.86,825.866 1784.79,824.606C1784.88,824.552 1784.96,824.499 1785.05,824.452C1785.09,824.428 1785.13,824.37 1785.18,824.382C1785.8,824.537 1785.76,824.632 1786.37,824.786C1786.22,825.175 1786.13,825.581 1785.98,825.97C1785.97,826 1785.69,826.035 1784.95,826.847C1783.77,828.148 1781.7,831.209 1777.64,827.165C1776.56,826.092 1774.4,819.387 1771.12,814.358C1766.48,807.228 1770.24,792.74 1776.14,794.757C1778.56,795.582 1780.01,799.171 1780.77,800.677L1780.82,800.629C1780.75,801.116 1780.79,801.613 1780.72,802.1C1780.71,802.177 1779.63,802.825 1779,801.657C1778.21,800.172 1776.3,795.171 1774.04,797.016C1771.26,799.288 1769.77,808.443 1772.73,813.068C1776.4,818.813 1777.79,823.806 1778.97,825.758C1778.99,825.784 1779.01,825.805 1779.02,825.834C1779.02,825.838 1779.02,825.844 1779.02,825.849ZM1780.49,800.913C1780.27,801.062 1780.21,801.096 1780.03,801.303L1780.49,800.913Z"/>
        <path d="M1852.15,801.942C1852.02,801.517 1851.85,801.106 1851.72,800.681C1851.7,800.619 1852.95,799.324 1851.75,788.348C1851.09,782.304 1849.98,776.885 1849.28,774.732C1845.4,762.691 1844.98,758.487 1842.01,755.442C1837.91,751.242 1829.18,752.027 1827.51,751.587C1824.1,750.694 1817.14,744.556 1794.73,755.722C1776.43,764.843 1781.93,798.779 1780.91,802.179C1780.88,802.257 1780.85,802.334 1780.82,802.406C1780.8,802.433 1780.8,802.477 1780.77,802.486C1780.17,802.676 1780.16,802.613 1779.56,802.803L1779.54,801.775L1779.21,801.656C1779.89,797.12 1774.86,763.595 1793.9,754.061C1817.88,742.05 1825.26,749.341 1828.18,749.756C1829.56,749.952 1837.81,749.538 1842.42,753.177C1846.81,756.637 1847.35,762.423 1851.12,773.848C1853.01,779.552 1855.57,796.873 1853.48,801.397C1853.46,801.435 1853.46,801.495 1853.42,801.511C1852.8,801.767 1852.77,801.687 1852.15,801.942Z"/>
        <path d="M1853.9,799.977L1853.9,799.974L1853.63,801.192C1853.22,801.075 1852.8,801.022 1852.39,800.905C1852.33,800.886 1852.32,800.785 1852.29,800.721C1850.95,797.82 1858.67,791.821 1860.6,796.505C1861,797.47 1860.87,797.508 1861.5,806.595C1861.73,809.894 1862.05,812.849 1861.62,814.046C1861.51,814.334 1856,825.69 1853.72,828.519C1852.28,830.317 1851.5,829.914 1849.38,829.722C1847.36,829.538 1846.06,829.331 1845.55,826.438C1845.54,826.338 1845.46,826.228 1845.51,826.136C1845.83,825.465 1845.98,825.557 1846.3,824.885C1846.65,825.225 1847.06,825.504 1847.42,825.843C1847.49,825.915 1847.48,827.361 1848.22,827.59C1848.75,827.756 1848.77,827.674 1851.27,827.951C1851.6,827.988 1851.99,827.821 1853.45,825.416C1855.22,822.491 1859.69,813.68 1859.79,813.235C1860.01,812.297 1859.8,812 1859.08,798.307C1859.02,797.175 1858.75,795.979 1856.76,796.977C1855.24,797.743 1853.98,799.254 1853.91,799.935C1853.91,799.956 1853.9,799.969 1853.9,799.977ZM1853.87,799.993C1853.85,799.997 1853.83,800.003 1853.81,800.022L1853.87,799.993Z"/>
        <path d="M1782.95,857.38C1782.82,856.928 1782.63,856.498 1782.5,856.047C1782.48,855.948 1782.66,855.985 1783.36,852.802C1784.67,846.816 1785.89,837.3 1784.79,835.33C1784.46,834.723 1784.74,834.682 1784.75,833.987C1785.17,834.026 1785.6,833.983 1786.02,834.021C1786.03,834.022 1786.18,834.215 1786.18,834.216C1788.71,837.625 1784.71,856.669 1784.28,856.861C1783.84,857.052 1783.38,857.188 1782.95,857.38Z" />
        <path d="M1806.97,914.944C1808.01,905.665 1808.86,904.308 1808.86,900.462C1808.86,895.861 1806.97,892.636 1804.87,886.97C1802.4,880.321 1795.83,861.164 1795.11,858.479C1793.58,852.758 1793,847.596 1785.97,842.098C1785.9,842.048 1785.8,842.027 1785.77,841.95C1785.5,841.145 1785.63,841.112 1785.37,840.31C1785.93,840.381 1786.5,840.188 1787.06,840.259C1787.06,840.259 1788.02,840.985 1788.98,841.85C1795.88,848.064 1795.92,854.462 1797.72,859.892C1805.67,883.835 1807.41,887.969 1808.4,890.351C1813,901.319 1810.09,902.473 1808.67,917.976C1808.66,918.065 1808.58,918.926 1808.51,919.078C1808.16,919.815 1807.08,919.866 1806.69,919.088C1802.78,911.192 1799.69,902.121 1799.18,900.61C1793.73,884.608 1794.38,880.285 1790.4,870.569C1787.67,863.907 1785.27,860.646 1784.73,851.004C1784.69,850.378 1784.67,850.378 1784.69,850.33C1784.98,849.757 1785.24,849.965 1785.53,849.395C1785.77,849.836 1786.24,850.124 1786.48,850.565C1786.62,850.818 1786.43,856.026 1789.09,862.686C1791.6,868.973 1793.48,871.111 1796.09,882.623C1797.48,888.772 1800.83,901.429 1806.97,914.944Z"/>
        <path d="M1836.16,851.97C1836.06,852.078 1836,852.137 1836,852.138C1835.55,852.272 1835.04,852.059 1834.6,852.193C1834.7,851.735 1834.44,851.244 1834.54,850.786C1834.57,850.67 1836.52,848.678 1836.7,848.499C1839.96,845.184 1840.97,844.837 1844.71,840.341C1844.77,840.277 1845.28,839.661 1845.43,839.569C1846.15,839.135 1847.12,839.648 1847.11,840.549C1847.09,841.362 1847.08,841.361 1846.83,850.711C1846.48,864.074 1845.58,867.11 1837.57,883.126C1834.77,888.739 1828.32,902.145 1825.3,911.866C1823.47,917.752 1824.01,918.613 1823.48,919.152C1822.95,919.696 1821.99,919.438 1821.83,918.661C1819.4,906.943 1819.59,904.161 1819.67,902.89C1819.68,902.737 1820.32,895.793 1822.21,888.737C1824.68,879.553 1827.22,876.539 1829.33,872.459C1834.16,863.124 1834.92,856.085 1836.16,851.97ZM1839.45,848.669C1839.46,848.672 1839.47,848.675 1839.49,848.677C1839.38,849.079 1839.33,849.497 1839.22,849.898C1839.2,849.996 1838.51,849.988 1837.72,852.991C1836.31,858.323 1835.34,866.168 1828.83,877.115C1826.56,880.937 1823.43,887.955 1821.72,901.483C1821.37,904.217 1821.46,906.36 1822.79,913.441C1824.09,908.715 1827.14,899.931 1834.34,884.999C1839.74,873.808 1843.38,867.686 1844.25,858.417C1844.62,854.478 1844.73,846.48 1844.79,843.548C1843.08,845.425 1842.48,845.879 1839.79,848.354C1839.67,848.46 1839.56,848.565 1839.45,848.669Z"/>
        <path d="M1722.37,894.814L1721.79,895.602C1721.57,895.241 1721.3,894.911 1721.08,894.55C1721.05,894.512 1721.14,894.333 1721.15,894.296C1721.23,894.116 1720.94,893.052 1735.35,883.827C1740.91,880.262 1755.06,871.487 1760.23,869.346C1763.51,867.988 1769.91,864.853 1775.59,860.908C1784.72,854.552 1786.05,850.225 1786.22,850.147C1786.64,849.956 1787.11,849.904 1787.53,849.713C1787.62,850.166 1787.87,850.575 1787.96,851.028C1787.98,851.136 1787.23,852.339 1787.16,852.45C1782.16,860.393 1769.06,867.698 1760.59,871.215C1754.82,873.609 1725.82,891.291 1722.78,894.992L1722.37,894.814Z"/>
        <path d="M1789.31,861.468C1789.32,861.431 1789.32,861.394 1789.33,861.357C1789.35,861.174 1790.49,860.72 1790.95,861.61C1791.15,861.987 1791.08,862.471 1790.8,862.782C1782.56,871.753 1779.75,878.033 1777.4,881.644C1763.64,902.76 1740.57,905.608 1720.78,895.163C1720.17,894.847 1720.61,894.613 1720.4,893.963C1720.82,893.927 1721.18,893.63 1721.6,893.594C1721.66,893.589 1739.84,904.359 1758.65,895.731C1760.89,894.707 1768.96,890.906 1775.68,880.52C1778.07,876.823 1780.9,870.527 1789.27,861.421L1789.31,861.468Z"/>
        <path d="M1749.52,900.118C1749.5,900.14 1749.54,900.172 1749.52,900.194C1749.51,900.217 1749.48,900.218 1749.45,900.229C1749.36,900.272 1749.36,900.203 1748.25,899.881C1748.39,899.483 1748.47,899.068 1748.6,898.67C1748.62,898.63 1748.81,898.566 1748.85,898.55C1751.93,897.289 1753.3,903.419 1762.47,904.329C1767.67,904.845 1777.39,907.999 1782.34,907.273C1784.65,906.934 1784.9,906.654 1787.42,906.771C1790.03,906.891 1797.51,907.329 1801.21,904.123C1801.32,904.027 1801.43,903.93 1801.54,903.834C1801.59,903.791 1801.64,903.747 1801.69,903.705C1801.72,903.675 1801.75,903.614 1801.8,903.617C1802.5,903.664 1802.48,903.758 1803.19,903.805C1803.09,904.255 1803.1,904.724 1803,905.175C1802.99,905.232 1802.2,905.855 1802.13,905.911C1797.13,909.876 1787.57,908.596 1785.69,908.735C1782.43,908.977 1782.34,910.304 1771.62,908.07C1766.3,906.962 1764.84,906.473 1762.28,906.201C1753.81,905.303 1750.99,900.149 1749.63,900.169C1749.62,900.169 1749.61,900.17 1749.6,900.172C1749.55,900.182 1749.56,900.148 1749.52,900.118Z"/>
        <path d="M1794.49,884.597C1794.5,884.552 1794.51,884.507 1794.52,884.462C1794.54,884.35 1794.6,884.405 1795.7,883.677C1795.9,884.085 1796.21,884.426 1796.41,884.834C1796.52,885.068 1795.18,887.354 1793.26,891.55C1792.65,892.893 1792.57,893.524 1781.58,902.856C1776.74,906.968 1775.22,905.75 1772.48,906.847C1770.58,907.611 1769.27,907.975 1768.82,906.935C1768.54,906.293 1769.06,906.402 1769.34,905.761L1769.74,906.559C1769.91,906.209 1769.86,906.197 1769.88,905.81C1771.47,905.52 1771.77,904.943 1773.87,904.585C1777.01,904.051 1777.75,903.661 1781.2,900.677C1791.1,892.099 1790.96,891.894 1791.58,890.55C1792.61,888.338 1793.95,885.688 1794.49,884.597Z"/>
        <path d="M1801.84,794.722C1809.06,789.653 1813.64,792.821 1814.53,800.293C1816.11,813.651 1798.73,813.778 1794.95,805.431C1793.42,802.063 1791.39,796.243 1797.18,794.892C1798.6,794.562 1800.41,794.606 1801.84,794.722ZM1799.73,796.483C1797.78,796.545 1795.77,797.011 1795.39,798.662C1794.98,800.459 1796.2,803.302 1796.79,804.587C1799.86,811.31 1815.57,811.465 1812.06,798.442C1811.42,796.061 1809.9,792.515 1804.56,795.541C1804.59,795.667 1804.65,795.81 1804.77,795.968C1804.4,796.158 1804.15,796.54 1803.78,796.731C1803.74,796.751 1803.39,796.703 1802.86,796.644C1801.89,797.354 1801.21,797.98 1801.21,797.98C1800.67,798.062 1800.12,797.908 1799.58,797.99C1799.72,797.504 1799.63,796.975 1799.73,796.483Z"/>
        <path d="M1828.68,794.084C1828.75,793.767 1828.78,793.444 1828.89,793.142C1828.89,793.141 1829.74,792.603 1830.77,792.125C1840.59,787.575 1844.65,797.806 1839.53,805.18C1832.76,814.938 1820.55,799.691 1826.3,794.943C1826.43,794.833 1827.11,794.277 1828.23,794.01C1828.3,793.992 1828.38,793.926 1828.45,793.959C1828.54,794.004 1828.62,794.045 1828.68,794.084ZM1829.38,794.8C1829.16,795.099 1828.98,795.425 1828.75,795.711C1828.74,795.726 1825.74,796.1 1826.97,800.027C1828.41,804.63 1835.32,810.721 1839.03,802.146C1841.47,796.49 1838.36,789.85 1830.43,794.657C1830.04,794.893 1830.05,794.924 1830,794.922C1829.7,794.911 1829.53,794.859 1829.38,794.8Z" fill="red"/>
        <path d="M1748.34,918.05C1752.08,914.407 1758.38,910.136 1768.95,911.108C1769.1,911.121 1769.27,911.055 1769.38,911.147C1769.76,911.472 1769.97,911.973 1770.35,912.298C1769.92,912.552 1769.63,913.017 1769.2,913.271C1768.95,913.413 1757.46,910.899 1748.61,920.888C1748.58,920.916 1748.15,921.576 1747.44,921.472C1747.2,921.436 1746.61,921.226 1746.52,920.504C1746.06,917.071 1745.23,909.779 1732.61,908.016C1722.47,906.6 1711.79,909.333 1709.73,906.491C1709.72,906.476 1708.45,904.598 1709.12,902.281C1710.6,897.197 1719.88,894.773 1722.01,893.899L1722.13,894.08L1722.91,893.811C1723,894.238 1723.2,894.636 1723.29,895.063C1723.3,895.11 1723.1,895.288 1723.08,895.311C1722.34,895.949 1712.69,898.28 1711.03,902.471C1711.01,902.522 1710.41,903.756 1711.25,905.368C1711.32,905.501 1712,905.823 1713.72,905.887C1722.16,906.204 1744.93,901.771 1748.34,918.05ZM1721.81,894.189L1721.76,894.158L1721.73,894.219L1721.81,894.189Z"/>
        <path d="M1760,913.366C1764.17,912.544 1776.54,910.212 1796.79,911.084C1813.99,911.824 1819.73,934.931 1817.9,947.353C1815.05,966.596 1810.26,970.407 1807.76,975.306C1802.47,985.661 1801.04,987.963 1791.78,990.452C1782.81,992.863 1778.76,993.381 1777.61,993.528C1746.14,997.553 1738.72,973.438 1728.45,964.941C1727.57,964.212 1719.36,959.029 1729.72,940.346C1735.01,930.803 1743.12,921.63 1747.4,919.176C1747.47,919.137 1747.53,919.048 1747.61,919.062C1748.23,919.17 1748.19,919.313 1748.81,919.421C1748.65,919.807 1748.61,920.234 1748.45,920.62C1748.45,920.621 1746.03,921.76 1741.31,927.098C1731.67,937.992 1721.17,956.552 1729.24,963.179C1736.54,969.182 1740.68,978.907 1750.49,985.878C1764.56,995.876 1780.99,991.188 1790.3,988.748C1799.25,986.402 1800.51,985.086 1805.77,974.603C1808.48,969.211 1813.02,965.865 1815.74,947.038C1817.28,936.427 1812.77,915.917 1798.67,913.545C1796.5,913.182 1786.43,912.85 1776.89,913.441C1766.48,914.087 1760.44,915.506 1760.42,915.479C1760.08,914.848 1760.34,913.998 1760,913.366Z"/>
        <path d="M1681.87,962.679C1685.16,968.049 1687.37,981.455 1691.1,983.637C1692.27,984.322 1693.06,983.324 1695.65,981.505C1700.78,977.893 1701.65,978.194 1708.76,973.956C1711.16,972.522 1722.49,960.253 1723.54,957.357C1723.62,957.154 1724.8,953.857 1724.81,953.853C1725.35,953.028 1726.14,952.39 1726.68,951.565C1726.57,952.545 1726.77,953.542 1726.67,954.521C1726.65,954.654 1725.52,957.765 1725.41,958.046C1725.14,958.803 1724.63,960.186 1719.43,966.149C1714.64,971.63 1711.15,974.96 1709.92,975.698C1702.17,980.369 1701.69,979.592 1694.43,984.992C1689.64,988.55 1686.74,981.29 1686.13,979.851C1683.69,974.02 1682.31,967.144 1680.11,963.649C1680.06,963.558 1679.4,963.355 1680.23,955.477C1681.49,943.606 1686.6,912.886 1696.73,908.069C1707,903.184 1708.32,904.786 1713.1,898.276C1713.18,898.169 1713.21,897.998 1713.33,897.954C1713.93,897.742 1713.98,897.965 1714.57,897.753C1714.56,898.172 1714.78,898.575 1714.77,898.994C1714.77,899.109 1713.51,900.672 1713.39,900.814C1709.12,906.109 1706.88,905.232 1697.52,909.709C1686.87,914.801 1681.24,956.5 1681.87,962.679Z"/>
        <path d="M1673.86,1036.82C1674.24,1032.9 1675.03,1025.03 1677.83,1002.48C1679.65,987.787 1685.53,978.865 1686.48,975.488C1686.5,975.441 1686.48,975.374 1686.52,975.347C1687.26,974.849 1687.31,974.934 1688.05,974.437C1688.32,974.972 1688.7,975.443 1688.96,975.978C1688.97,975.984 1688.79,976.679 1688.36,977.706C1686.73,981.57 1681.89,990.216 1680.34,1002.45C1677.35,1025.91 1676.32,1036.61 1676.03,1039.58C1675.79,1042.06 1675.71,1042.51 1675.19,1042.84C1674.72,1043.15 1673.88,1043.15 1673.45,1042.38C1671.72,1039.24 1670.52,1033.67 1670.35,1032.89C1668.21,1022.92 1667.79,1010.03 1668.76,1002.96C1672.35,976.832 1672.27,975.69 1679.81,965.986C1679.87,965.903 1679.9,965.766 1680,965.737C1680.61,965.563 1680.64,965.748 1681.25,965.575C1681.15,965.982 1681.51,966.413 1681.41,966.819C1681.31,967.207 1677.32,971.424 1675.47,976.563C1674.03,980.569 1673.49,984.938 1671.06,1003.26C1670.12,1010.34 1670.52,1026.18 1673.86,1036.82Z"/>
        <path d="M1691.34,1069.97C1683.23,1045 1684.37,1037.79 1685.43,1020.5C1686.09,1009.78 1685.88,999.676 1687.6,990.851C1688.48,986.356 1689.31,985.567 1689.05,984.846C1689.02,984.752 1689.09,984.762 1689.54,983.699C1689.92,983.891 1690.33,984.006 1690.7,984.198C1690.7,984.198 1690.83,984.508 1690.88,984.857C1691.12,986.921 1688.35,988.031 1687.77,1009.97C1687.33,1027.06 1686.42,1030.1 1686.78,1038.49C1687.18,1048.16 1689.58,1058.43 1695.58,1075.32C1695.61,1075.41 1695.94,1076.33 1695.94,1076.52C1695.95,1077.55 1694.64,1078.14 1693.88,1077.27C1690.36,1073.19 1677.23,1054.06 1674.64,1047.24C1673.12,1043.22 1673.7,1040.5 1674.02,1036.19C1674.06,1035.53 1674,1035.52 1674.07,1035.42C1674.46,1034.81 1674.74,1035.08 1675.14,1034.47C1675.35,1034.9 1675.87,1035.12 1676.08,1035.55C1676.19,1035.77 1675.39,1041.01 1675.99,1044.03C1676.52,1046.72 1678.18,1049.71 1680.96,1054.15C1685.68,1061.67 1689.03,1066.67 1691.34,1069.97Z"/>
        <path d="M1735.54,971.038C1735.76,971.392 1736.02,971.718 1736.24,972.071C1736.27,972.115 1736.22,972.173 1736.23,972.224C1736.24,973.061 1736.65,974.305 1735.09,983.794C1734.71,986.149 1732.64,985.504 1727.93,1005.76C1725.45,1016.47 1724.86,1021.05 1720.7,1031.64C1718.54,1037.15 1717.96,1038.45 1715.33,1045.73C1714.65,1047.62 1711.91,1055.2 1703.16,1067.71C1699.78,1072.55 1698.79,1071.74 1696.92,1074.75C1695.98,1076.27 1696.11,1076.35 1695.99,1076.45C1695.73,1076.67 1695.53,1077.01 1695.21,1077.12C1695.19,1077.12 1694.17,1077.05 1694.16,1077.04C1693.94,1076.78 1693.6,1076.59 1693.49,1076.26C1693.38,1075.93 1693.49,1075.57 1693.56,1075.23C1693.56,1075.23 1694.08,1074.2 1694.64,1073.32C1696.84,1069.88 1697.85,1070.71 1701.06,1066.23C1711.02,1052.34 1713.58,1043.83 1713.77,1043.34C1719.88,1027.01 1721,1027.34 1725.01,1009.7C1729.71,989.04 1731.79,986.593 1733.06,984.129C1733.25,983.778 1733.28,983.732 1733.74,980.728C1734.94,972.942 1734.29,972.885 1734.49,971.747C1734.54,971.499 1734.68,971.623 1735.54,971.038Z"/>
        <path d="M1617.03,951.417C1617.13,951.208 1617.34,951.179 1617.6,951.687L1617.6,950.731L1617.99,950.731L1617.99,952.78L1617.59,952.78L1617.59,952.7C1617.58,952.697 1617.58,952.693 1617.57,952.689C1617.58,952.719 1617.58,952.749 1617.59,952.78C1617.03,952.78 1616.57,952.321 1616.57,951.755C1616.57,951.398 1616.75,951.083 1617.03,951.417Z"/>
    </g>
</svg>
